<svg xmlns="http://www.w3.org/2000/svg" viewBox="0 0 1200 675" role="img" aria-labelledby="title desc">
  <title id="title">Cataract surgery lens options modern illustration</title>
  <desc id="desc">Modern medical illustration comparing intraocular lens options for cataract surgery.</desc>
  <defs>
    <linearGradient id="bg" x1="0" y1="0" x2="1" y2="1">
      <stop offset="0" stop-color="#f8fafc"/>
      <stop offset=".48" stop-color="#e0f2fe"/>
      <stop offset="1" stop-color="#ecfeff"/>
    </linearGradient>
    <radialGradient id="glow" cx="50%" cy="45%" r="58%">
      <stop offset="0" stop-color="#06b6d4" stop-opacity=".38"/>
      <stop offset="1" stop-color="#06b6d4" stop-opacity="0"/>
    </radialGradient>
    <linearGradient id="panel" x1="0" y1="0" x2="1" y2="1">
      <stop offset="0" stop-color="#0f766e"/>
      <stop offset="1" stop-color="#06b6d4"/>
    </linearGradient>
    <linearGradient id="glass" x1="0" y1="0" x2="1" y2="1">
      <stop offset="0" stop-color="#ffffff" stop-opacity=".98"/>
      <stop offset="1" stop-color="#dbeafe" stop-opacity=".84"/>
    </linearGradient>
    <linearGradient id="iris" x1="0" y1="0" x2="1" y2="1">
      <stop offset="0" stop-color="#06b6d4"/>
      <stop offset="1" stop-color="#0f766e"/>
    </linearGradient>
    <linearGradient id="screen" x1="0" y1="0" x2="1" y2="1">
      <stop offset="0" stop-color="#06b6d4"/>
      <stop offset="1" stop-color="#0f766e"/>
    </linearGradient>
    <filter id="shadow" x="-20%" y="-20%" width="140%" height="150%">
      <feDropShadow dx="0" dy="28" stdDeviation="28" flood-color="#0f172a" flood-opacity=".22"/>
    </filter>
  </defs>
  <rect width="1200" height="675" fill="url(#bg)"/>
  <circle cx="930" cy="70" r="240" fill="url(#glow)"/>
  <circle cx="162" cy="560" r="260" fill="#f8c14a" opacity=".12"/>
  <path d="M0 494C158 424 292 430 448 494s294 78 456-2 232-78 296-38v221H0Z" fill="#0f766e" opacity=".10"/>
  <g filter="url(#shadow)">
    <rect x="118" y="68" width="964" height="540" rx="58" fill="url(#panel)" opacity=".18"/>
    <rect x="148" y="88" width="904" height="500" rx="52" fill="white" opacity=".54"/>
    
  <g transform="translate(278 166)">
    <rect x="0" y="0" width="644" height="344" rx="40" fill="white" opacity=".92"/>
    <circle cx="132" cy="172" r="82" fill="url(#glass)" stroke="#0f766e" stroke-width="10"/>
    <circle cx="322" cy="172" r="82" fill="url(#glass)" stroke="#06b6d4" stroke-width="10"/>
    <circle cx="512" cy="172" r="82" fill="url(#glass)" stroke="#f8c14a" stroke-width="10"/>
    <path d="M74 172h116M264 128c36 34 36 54 0 88M322 92v160M322 92c48 44 48 116 0 160M454 172h116M512 92c-28 48-28 112 0 160" stroke="#0f172a" stroke-opacity=".58" stroke-width="10" stroke-linecap="round" fill="none"/>
  </g>
  </g>
  <path d="M1044 98c-26 34-26 70 0 106 26-36 26-72 0-106Z" fill="#f8c14a" opacity=".68"/>
  <path d="M112 514c42-54 86-54 128 0-42 54-86 54-128 0Z" fill="#06b6d4" opacity=".22"/>
</svg>
