<svg xmlns="http://www.w3.org/2000/svg" viewBox="0 0 1200 675" role="img" aria-labelledby="title desc">
  <title id="title">Children myopia control modern illustration</title>
  <desc id="desc">Modern medical illustration of child myopia control, glasses, eye growth monitoring, and outdoor time.</desc>
  <defs>
    <linearGradient id="bg" x1="0" y1="0" x2="1" y2="1">
      <stop offset="0" stop-color="#f8fafc"/>
      <stop offset=".48" stop-color="#e0f2fe"/>
      <stop offset="1" stop-color="#ecfeff"/>
    </linearGradient>
    <radialGradient id="glow" cx="50%" cy="45%" r="58%">
      <stop offset="0" stop-color="#22c55e" stop-opacity=".38"/>
      <stop offset="1" stop-color="#22c55e" stop-opacity="0"/>
    </radialGradient>
    <linearGradient id="panel" x1="0" y1="0" x2="1" y2="1">
      <stop offset="0" stop-color="#2563eb"/>
      <stop offset="1" stop-color="#22c55e"/>
    </linearGradient>
    <linearGradient id="glass" x1="0" y1="0" x2="1" y2="1">
      <stop offset="0" stop-color="#ffffff" stop-opacity=".98"/>
      <stop offset="1" stop-color="#dbeafe" stop-opacity=".84"/>
    </linearGradient>
    <linearGradient id="iris" x1="0" y1="0" x2="1" y2="1">
      <stop offset="0" stop-color="#22c55e"/>
      <stop offset="1" stop-color="#2563eb"/>
    </linearGradient>
    <linearGradient id="screen" x1="0" y1="0" x2="1" y2="1">
      <stop offset="0" stop-color="#22c55e"/>
      <stop offset="1" stop-color="#2563eb"/>
    </linearGradient>
    <filter id="shadow" x="-20%" y="-20%" width="140%" height="150%">
      <feDropShadow dx="0" dy="28" stdDeviation="28" flood-color="#0f172a" flood-opacity=".22"/>
    </filter>
  </defs>
  <rect width="1200" height="675" fill="url(#bg)"/>
  <circle cx="930" cy="70" r="240" fill="url(#glow)"/>
  <circle cx="162" cy="560" r="260" fill="#f97316" opacity=".12"/>
  <path d="M0 494C158 424 292 430 448 494s294 78 456-2 232-78 296-38v221H0Z" fill="#2563eb" opacity=".10"/>
  <g filter="url(#shadow)">
    <rect x="118" y="68" width="964" height="540" rx="58" fill="url(#panel)" opacity=".18"/>
    <rect x="148" y="88" width="904" height="500" rx="52" fill="white" opacity=".54"/>
    
  <g transform="translate(210 112)">
    <circle cx="218" cy="156" r="98" fill="#fde68a"/>
    <path d="M118 390c18-114 72-172 160-172s142 58 160 172" fill="#2563eb" opacity=".9"/>
    <path d="M156 154c42 32 88 32 130 0M112 154h46M286 154h46" stroke="#0f172a" stroke-width="12" stroke-linecap="round" fill="none"/>
    <rect x="482" y="86" width="250" height="278" rx="30" fill="white" opacity=".94"/>
    <path d="M522 224c54-76 116-76 170 0-54 76-116 76-170 0Z" fill="#22c55e" opacity=".18" stroke="#22c55e" stroke-width="10"/>
    <circle cx="607" cy="224" r="40" fill="#2563eb"/>
    <path d="M76 466c180-78 356-78 528 0M750 94l34-48M784 166l62-22M784 250l58 28" stroke="#f97316" stroke-width="16" stroke-linecap="round" fill="none"/>
  </g>
  </g>
  <path d="M1044 98c-26 34-26 70 0 106 26-36 26-72 0-106Z" fill="#f97316" opacity=".68"/>
  <path d="M112 514c42-54 86-54 128 0-42 54-86 54-128 0Z" fill="#22c55e" opacity=".22"/>
</svg>
