<svg xmlns="http://www.w3.org/2000/svg" viewBox="0 0 1200 675" role="img" aria-labelledby="title desc">
  <title id="title">Comprehensive eye exam modern illustration</title>
  <desc id="desc">Modern medical illustration of comprehensive eye exam tools, retina check, and vision testing.</desc>
  <defs>
    <linearGradient id="bg" x1="0" y1="0" x2="1" y2="1">
      <stop offset="0" stop-color="#f8fafc"/>
      <stop offset=".48" stop-color="#e0f2fe"/>
      <stop offset="1" stop-color="#ecfeff"/>
    </linearGradient>
    <radialGradient id="glow" cx="50%" cy="45%" r="58%">
      <stop offset="0" stop-color="#06b6d4" stop-opacity=".38"/>
      <stop offset="1" stop-color="#06b6d4" stop-opacity="0"/>
    </radialGradient>
    <linearGradient id="panel" x1="0" y1="0" x2="1" y2="1">
      <stop offset="0" stop-color="#0369a1"/>
      <stop offset="1" stop-color="#06b6d4"/>
    </linearGradient>
    <linearGradient id="glass" x1="0" y1="0" x2="1" y2="1">
      <stop offset="0" stop-color="#ffffff" stop-opacity=".98"/>
      <stop offset="1" stop-color="#dbeafe" stop-opacity=".84"/>
    </linearGradient>
    <linearGradient id="iris" x1="0" y1="0" x2="1" y2="1">
      <stop offset="0" stop-color="#06b6d4"/>
      <stop offset="1" stop-color="#0369a1"/>
    </linearGradient>
    <linearGradient id="screen" x1="0" y1="0" x2="1" y2="1">
      <stop offset="0" stop-color="#06b6d4"/>
      <stop offset="1" stop-color="#0369a1"/>
    </linearGradient>
    <filter id="shadow" x="-20%" y="-20%" width="140%" height="150%">
      <feDropShadow dx="0" dy="28" stdDeviation="28" flood-color="#0f172a" flood-opacity=".22"/>
    </filter>
  </defs>
  <rect width="1200" height="675" fill="url(#bg)"/>
  <circle cx="930" cy="70" r="240" fill="url(#glow)"/>
  <circle cx="162" cy="560" r="260" fill="#84cc16" opacity=".12"/>
  <path d="M0 494C158 424 292 430 448 494s294 78 456-2 232-78 296-38v221H0Z" fill="#0369a1" opacity=".10"/>
  <g filter="url(#shadow)">
    <rect x="118" y="68" width="964" height="540" rx="58" fill="url(#panel)" opacity=".18"/>
    <rect x="148" y="88" width="904" height="500" rx="52" fill="white" opacity=".54"/>
    
  <g transform="translate(210 116)">
    <rect x="0" y="0" width="308" height="384" rx="34" fill="white" opacity=".94"/>
    <path d="M64 80h180M86 144h136M108 208h92M130 272h48" stroke="#0f172a" stroke-opacity=".65" stroke-width="18" stroke-linecap="round"/>
    <rect x="420" y="28" width="344" height="328" rx="38" fill="#0f172a" opacity=".9"/>
    <path d="M486 192c72-96 142-96 214 0-72 96-142 96-214 0Z" fill="#06b6d4" opacity=".22" stroke="#06b6d4" stroke-width="12"/>
    <circle cx="593" cy="192" r="52" fill="#0369a1"/>
    <path d="M640 290l92 68" stroke="#84cc16" stroke-width="18" stroke-linecap="round"/>
  </g>
  </g>
  <path d="M1044 98c-26 34-26 70 0 106 26-36 26-72 0-106Z" fill="#84cc16" opacity=".68"/>
  <path d="M112 514c42-54 86-54 128 0-42 54-86 54-128 0Z" fill="#06b6d4" opacity=".22"/>
</svg>
