<svg xmlns="http://www.w3.org/2000/svg" viewBox="0 0 1200 675" role="img" aria-labelledby="title desc">
  <title id="title">Diabetic retinopathy modern illustration</title>
  <desc id="desc">Modern medical illustration of retinal vessels and diabetic retinopathy screening.</desc>
  <defs>
    <linearGradient id="bg" x1="0" y1="0" x2="1" y2="1">
      <stop offset="0" stop-color="#f8fafc"/>
      <stop offset=".48" stop-color="#e0f2fe"/>
      <stop offset="1" stop-color="#ecfeff"/>
    </linearGradient>
    <radialGradient id="glow" cx="50%" cy="45%" r="58%">
      <stop offset="0" stop-color="#f43f5e" stop-opacity=".38"/>
      <stop offset="1" stop-color="#f43f5e" stop-opacity="0"/>
    </radialGradient>
    <linearGradient id="panel" x1="0" y1="0" x2="1" y2="1">
      <stop offset="0" stop-color="#be123c"/>
      <stop offset="1" stop-color="#f43f5e"/>
    </linearGradient>
    <linearGradient id="glass" x1="0" y1="0" x2="1" y2="1">
      <stop offset="0" stop-color="#ffffff" stop-opacity=".98"/>
      <stop offset="1" stop-color="#dbeafe" stop-opacity=".84"/>
    </linearGradient>
    <linearGradient id="iris" x1="0" y1="0" x2="1" y2="1">
      <stop offset="0" stop-color="#f43f5e"/>
      <stop offset="1" stop-color="#be123c"/>
    </linearGradient>
    <linearGradient id="screen" x1="0" y1="0" x2="1" y2="1">
      <stop offset="0" stop-color="#f43f5e"/>
      <stop offset="1" stop-color="#be123c"/>
    </linearGradient>
    <filter id="shadow" x="-20%" y="-20%" width="140%" height="150%">
      <feDropShadow dx="0" dy="28" stdDeviation="28" flood-color="#0f172a" flood-opacity=".22"/>
    </filter>
  </defs>
  <rect width="1200" height="675" fill="url(#bg)"/>
  <circle cx="930" cy="70" r="240" fill="url(#glow)"/>
  <circle cx="162" cy="560" r="260" fill="#22c55e" opacity=".12"/>
  <path d="M0 494C158 424 292 430 448 494s294 78 456-2 232-78 296-38v221H0Z" fill="#be123c" opacity=".10"/>
  <g filter="url(#shadow)">
    <rect x="118" y="68" width="964" height="540" rx="58" fill="url(#panel)" opacity=".18"/>
    <rect x="148" y="88" width="904" height="500" rx="52" fill="white" opacity=".54"/>
    
  <g transform="translate(242 92)">
    <circle cx="352" cy="246" r="206" fill="#fff1f2" opacity=".96"/>
    <circle cx="352" cy="246" r="82" fill="#22c55e" opacity=".9"/>
    <path d="M352 246C260 190 212 138 172 66M352 246c-84 22-148 78-208 168M352 246c98-16 170-64 244-146M352 246c72 44 126 100 178 174M352 246c-12 86-12 146-6 208" stroke="#be123c" stroke-width="18" stroke-linecap="round" fill="none"/>
    <path d="M286 202c-52-18-86-46-112-86M416 222c58-18 100-52 130-94M300 304c-58 18-98 54-132 104M426 310c48 26 86 62 116 110" stroke="#f43f5e" stroke-width="10" stroke-linecap="round" fill="none"/>
    <circle cx="210" cy="130" r="18" fill="#f43f5e"/><circle cx="504" cy="152" r="14" fill="#f43f5e"/><circle cx="214" cy="394" r="16" fill="#f43f5e"/><circle cx="536" cy="402" r="18" fill="#f43f5e"/>
  </g>
  </g>
  <path d="M1044 98c-26 34-26 70 0 106 26-36 26-72 0-106Z" fill="#22c55e" opacity=".68"/>
  <path d="M112 514c42-54 86-54 128 0-42 54-86 54-128 0Z" fill="#f43f5e" opacity=".22"/>
</svg>
