<svg xmlns="http://www.w3.org/2000/svg" viewBox="0 0 1200 675" role="img" aria-labelledby="title desc">
  <title id="title">Eyelid skin and eye comfort modern illustration</title>
  <desc id="desc">Modern medical illustration of eyelid skin irritation and ocular surface comfort.</desc>
  <defs>
    <linearGradient id="bg" x1="0" y1="0" x2="1" y2="1">
      <stop offset="0" stop-color="#f8fafc"/>
      <stop offset=".48" stop-color="#e0f2fe"/>
      <stop offset="1" stop-color="#ecfeff"/>
    </linearGradient>
    <radialGradient id="glow" cx="50%" cy="45%" r="58%">
      <stop offset="0" stop-color="#fb7185" stop-opacity=".38"/>
      <stop offset="1" stop-color="#fb7185" stop-opacity="0"/>
    </radialGradient>
    <linearGradient id="panel" x1="0" y1="0" x2="1" y2="1">
      <stop offset="0" stop-color="#9d174d"/>
      <stop offset="1" stop-color="#fb7185"/>
    </linearGradient>
    <linearGradient id="glass" x1="0" y1="0" x2="1" y2="1">
      <stop offset="0" stop-color="#ffffff" stop-opacity=".98"/>
      <stop offset="1" stop-color="#dbeafe" stop-opacity=".84"/>
    </linearGradient>
    <linearGradient id="iris" x1="0" y1="0" x2="1" y2="1">
      <stop offset="0" stop-color="#fb7185"/>
      <stop offset="1" stop-color="#9d174d"/>
    </linearGradient>
    <linearGradient id="screen" x1="0" y1="0" x2="1" y2="1">
      <stop offset="0" stop-color="#fb7185"/>
      <stop offset="1" stop-color="#9d174d"/>
    </linearGradient>
    <filter id="shadow" x="-20%" y="-20%" width="140%" height="150%">
      <feDropShadow dx="0" dy="28" stdDeviation="28" flood-color="#0f172a" flood-opacity=".22"/>
    </filter>
  </defs>
  <rect width="1200" height="675" fill="url(#bg)"/>
  <circle cx="930" cy="70" r="240" fill="url(#glow)"/>
  <circle cx="162" cy="560" r="260" fill="#14b8a6" opacity=".12"/>
  <path d="M0 494C158 424 292 430 448 494s294 78 456-2 232-78 296-38v221H0Z" fill="#9d174d" opacity=".10"/>
  <g filter="url(#shadow)">
    <rect x="118" y="68" width="964" height="540" rx="58" fill="url(#panel)" opacity=".18"/>
    <rect x="148" y="88" width="904" height="500" rx="52" fill="white" opacity=".54"/>
    
  <g transform="translate(220 116)">
    <path d="M0 214C130 70 258 24 382 76c72 30 132 78 196 138-110 122-236 176-376 146C118 342 54 294 0 214Z" fill="white" opacity=".94"/>
    <path d="M88 116c104-66 224-72 354-14" stroke="#fb7185" stroke-width="34" stroke-linecap="round" fill="none" opacity=".72"/>
    <circle cx="290" cy="214" r="76" fill="#14b8a6" opacity=".9"/>
    <circle cx="290" cy="214" r="32" fill="#0f172a"/>
    <path d="M84 318c118 42 246 42 388-14" stroke="#9d174d" stroke-width="16" stroke-linecap="round" fill="none" opacity=".65"/>
    <circle cx="572" cy="104" r="42" fill="#fb7185" opacity=".9"/><circle cx="650" cy="168" r="24" fill="#fb7185" opacity=".7"/><circle cx="622" cy="262" r="32" fill="#9d174d" opacity=".75"/>
  </g>
  </g>
  <path d="M1044 98c-26 34-26 70 0 106 26-36 26-72 0-106Z" fill="#14b8a6" opacity=".68"/>
  <path d="M112 514c42-54 86-54 128 0-42 54-86 54-128 0Z" fill="#fb7185" opacity=".22"/>
</svg>
