<svg xmlns="http://www.w3.org/2000/svg" viewBox="0 0 1200 675" role="img" aria-labelledby="title desc">
  <title id="title">Flashes and floaters retina warning modern illustration</title>
  <desc id="desc">Modern medical illustration of flashes, floaters, and curtain shadow warning signs.</desc>
  <defs>
    <linearGradient id="bg" x1="0" y1="0" x2="1" y2="1">
      <stop offset="0" stop-color="#f8fafc"/>
      <stop offset=".48" stop-color="#e0f2fe"/>
      <stop offset="1" stop-color="#ecfeff"/>
    </linearGradient>
    <radialGradient id="glow" cx="50%" cy="45%" r="58%">
      <stop offset="0" stop-color="#8b5cf6" stop-opacity=".38"/>
      <stop offset="1" stop-color="#8b5cf6" stop-opacity="0"/>
    </radialGradient>
    <linearGradient id="panel" x1="0" y1="0" x2="1" y2="1">
      <stop offset="0" stop-color="#4c1d95"/>
      <stop offset="1" stop-color="#8b5cf6"/>
    </linearGradient>
    <linearGradient id="glass" x1="0" y1="0" x2="1" y2="1">
      <stop offset="0" stop-color="#ffffff" stop-opacity=".98"/>
      <stop offset="1" stop-color="#dbeafe" stop-opacity=".84"/>
    </linearGradient>
    <linearGradient id="iris" x1="0" y1="0" x2="1" y2="1">
      <stop offset="0" stop-color="#8b5cf6"/>
      <stop offset="1" stop-color="#4c1d95"/>
    </linearGradient>
    <linearGradient id="screen" x1="0" y1="0" x2="1" y2="1">
      <stop offset="0" stop-color="#8b5cf6"/>
      <stop offset="1" stop-color="#4c1d95"/>
    </linearGradient>
    <filter id="shadow" x="-20%" y="-20%" width="140%" height="150%">
      <feDropShadow dx="0" dy="28" stdDeviation="28" flood-color="#0f172a" flood-opacity=".22"/>
    </filter>
  </defs>
  <rect width="1200" height="675" fill="url(#bg)"/>
  <circle cx="930" cy="70" r="240" fill="url(#glow)"/>
  <circle cx="162" cy="560" r="260" fill="#fbbf24" opacity=".12"/>
  <path d="M0 494C158 424 292 430 448 494s294 78 456-2 232-78 296-38v221H0Z" fill="#4c1d95" opacity=".10"/>
  <g filter="url(#shadow)">
    <rect x="118" y="68" width="964" height="540" rx="58" fill="url(#panel)" opacity=".18"/>
    <rect x="148" y="88" width="904" height="500" rx="52" fill="white" opacity=".54"/>
    
  <g transform="translate(236 104)">
    <path d="M0 236C116 78 242 24 378 74c76 28 140 82 214 162-112 142-240 202-384 166C118 380 52 324 0 236Z" fill="white" opacity=".94"/>
    <circle cx="296" cy="236" r="96" fill="#8b5cf6" opacity=".84"/>
    <circle cx="296" cy="236" r="42" fill="#0f172a"/>
    <path d="M484 84l70-70M520 170l102-24M512 284l88 54" stroke="#fbbf24" stroke-width="18" stroke-linecap="round"/>
    <path d="M170 172c42 44 18 92-38 84M398 146c-48 30-42 72 10 98M434 322c-38-10-52 18-30 48" stroke="#0f172a" stroke-opacity=".5" stroke-width="13" stroke-linecap="round" fill="none"/>
    <path d="M616 54v366" stroke="#0f172a" stroke-opacity=".55" stroke-width="42" stroke-linecap="round"/>
  </g>
  </g>
  <path d="M1044 98c-26 34-26 70 0 106 26-36 26-72 0-106Z" fill="#fbbf24" opacity=".68"/>
  <path d="M112 514c42-54 86-54 128 0-42 54-86 54-128 0Z" fill="#8b5cf6" opacity=".22"/>
</svg>
